<svg xmlns="http://www.w3.org/2000/svg" xmlns:xlink="http://www.w3.org/1999/xlink" viewBox="0 0 24 24"><defs><style>.cls-1{fill:url(#New_Gradient_Swatch_18);}.cls-2{fill:url(#New_Gradient_Swatch_17);}.cls-3{fill:#fff;opacity:0.4;}.cls-4{fill:none;}</style><linearGradient id="New_Gradient_Swatch_18" x1="12" y1="2" x2="12" y2="22" gradientUnits="userSpaceOnUse"><stop offset="0.08" stop-color="#bd4242"/><stop offset="0.95" stop-color="#700"/></linearGradient><radialGradient id="New_Gradient_Swatch_17" cx="-46.67" cy="17.1" fx="-54.52203919763379" r="16.99" gradientTransform="translate(54.1 -3.89) scale(0.94 0.94)" gradientUnits="userSpaceOnUse"><stop offset="0.35" stop-color="#f4afb2"/><stop offset="0.95" stop-color="#c13c3a"/></radialGradient></defs><g id="Layer_2" data-name="Layer 2"><g id="run"><g id="end_24"><path class="cls-1" d="M5,2A3,3,0,0,0,2,5V19a3,3,0,0,0,3,3H19a3,3,0,0,0,3-3V5a3,3,0,0,0-3-3Z"/><rect class="cls-2" x="3" y="3" width="18" height="18" rx="2"/><path class="cls-3" d="M18,3H6A3,3,0,0,0,3,6V7A3,3,0,0,1,6,4H18a3,3,0,0,1,3,3V6A3,3,0,0,0,18,3Z"/><rect class="cls-4" width="24" height="24"/></g></g></g></svg>